<svg version="1.1" id="Layer_1" xmlns="http://www.w3.org/2000/svg" xmlns:xlink="http://www.w3.org/1999/xlink" x="0px" y="0px"
	 width="100%" viewBox="0 0 1600 1600" enable-background="new 0 0 1600 1600" xml:space="preserve">
<path fill="#FFFFFF" opacity="1.000000" stroke="none" 
	d="
M1450.000000,1601.000000 
	C966.666809,1601.000000 483.833618,1601.000000 1.000324,1601.000000 
	C1.000216,1067.666992 1.000216,534.333923 1.000108,1.000682 
	C534.332886,1.000454 1067.665771,1.000454 1600.999023,1.000227 
	C1600.999268,534.332703 1600.999268,1067.665405 1600.999634,1600.999023 
	C1550.833374,1601.000000 1500.666626,1601.000000 1450.000000,1601.000000 
M427.833923,802.057556 
	C428.353180,801.740601 428.872437,801.423584 429.982880,800.862000 
	C442.427551,788.707947 453.548035,775.549438 461.557220,759.953369 
	C469.848145,743.808655 475.115082,727.383667 467.660522,709.320374 
	C467.166168,708.122620 467.692596,706.106934 468.420258,704.869019 
	C471.916412,698.921021 471.675049,694.631287 467.282257,690.487549 
	C462.859985,686.316040 458.565979,686.430176 452.966949,690.366943 
	C451.650482,691.292603 449.356995,691.712830 447.813141,691.284241 
	C439.228699,688.901428 422.879242,690.654602 415.798706,694.851379 
	C426.624359,694.851379 437.840057,694.851379 449.368530,694.851379 
	C449.645813,702.912170 452.611176,708.033752 460.421600,709.256042 
	C461.229126,709.382385 462.336914,710.865540 462.420959,711.798767 
	C462.909424,717.222290 464.021088,722.792786 463.287140,728.086853 
	C460.633423,747.227234 449.933380,762.564636 438.229492,777.125854 
	C431.992889,784.885071 424.744324,791.830811 417.408997,799.492310 
	C393.750793,819.918335 367.589386,835.606140 336.417542,841.403259 
	C324.943298,843.537109 313.518646,842.869507 302.630432,838.000488 
	C300.208252,836.917297 298.673950,835.750977 299.041748,832.432495 
	C299.598236,827.411377 296.560364,823.192566 292.238525,822.112549 
	C287.713318,820.981750 283.592255,821.752380 280.645416,825.786804 
	C278.147705,829.206238 278.270599,834.700867 280.830048,837.968506 
	C283.840515,841.812256 288.467590,842.824097 293.375092,840.956970 
	C294.568420,840.503113 296.491730,840.146729 297.297516,840.764832 
	C312.476746,852.407776 329.436218,851.828125 346.906036,848.364319 
	C368.771149,844.029053 387.712830,833.346375 405.645721,820.804260 
	C413.062836,815.616760 419.490295,809.014282 427.008240,802.731201 
	C427.126892,802.523438 427.245544,802.315674 427.833923,802.057556 
M314.143890,819.498169 
	C314.148407,824.161987 313.988098,828.835876 314.271057,833.482788 
	C314.343597,834.673767 315.777710,836.738220 316.650818,836.772705 
	C323.547028,837.045898 330.458862,836.924622 337.721252,836.924622 
	C337.721252,833.981323 337.720398,832.174561 337.721375,830.367859 
	C337.736420,802.052734 337.610443,773.736572 337.824036,745.422913 
	C337.938141,730.295044 347.553711,717.273438 361.593353,712.238770 
	C374.921234,707.459351 390.703735,711.481445 400.439545,722.226196 
	C416.210846,739.631836 409.631683,763.259094 396.950073,771.528076 
	C384.399109,757.895630 371.010101,758.649292 360.891907,763.424316 
	C349.133331,768.973633 343.699280,781.283142 345.360321,798.674744 
	C352.425995,799.997620 359.687012,801.814758 367.059326,802.654175 
	C392.194580,805.516235 415.561798,793.499146 426.515686,772.469421 
	C437.853302,750.703003 434.622131,724.996521 418.208374,706.379456 
	C401.378143,687.289978 375.342133,681.396179 350.214935,690.987610 
	C329.143158,699.031006 314.175201,721.450745 314.157410,745.045837 
	C314.138947,769.530212 314.147766,794.014648 314.143890,819.498169 
M1015.213379,797.350098 
	C1015.213379,799.487793 1015.213379,801.625549 1015.213379,804.048950 
	C1022.184143,804.048950 1028.759155,804.048950 1035.837402,804.048950 
	C1035.837402,795.888794 1035.837402,787.984680 1035.837402,779.897888 
	C1043.749878,779.897888 1051.157227,779.897888 1059.038086,779.897888 
	C1059.038086,788.115051 1059.038086,796.029480 1059.038086,804.085693 
	C1066.101074,804.085693 1072.684692,804.085693 1079.503906,804.085693 
	C1079.503906,782.064880 1079.503906,760.326416 1079.503906,738.427490 
	C1072.583984,738.427490 1065.899536,738.427490 1058.759277,738.427490 
	C1058.759277,746.587219 1058.759277,754.327820 1058.759277,762.324463 
	C1050.915649,762.324463 1043.539307,762.324463 1035.569092,762.324463 
	C1035.569092,754.117493 1035.569092,746.232666 1035.569092,738.280640 
	C1028.538818,738.280640 1022.106445,738.280640 1015.209290,738.280640 
	C1015.209290,757.821472 1015.209290,777.106018 1015.213379,797.350098 
M830.238159,805.813477 
	C846.469788,803.728394 856.497253,795.544861 860.154785,781.398071 
	C863.815430,767.239319 858.784119,750.521912 848.704956,743.353027 
	C835.732300,734.126221 817.004333,734.633972 804.956665,744.539124 
	C793.790039,753.719727 789.511902,772.834839 795.747803,786.640503 
	C802.265869,801.070923 814.087158,806.500793 830.238159,805.813477 
M993.062317,741.370178 
	C978.793579,735.414001 963.831299,738.525391 949.148315,738.251709 
	C948.284546,738.235596 946.600342,741.330933 946.585022,742.990295 
	C946.417114,761.135010 946.505371,779.282104 946.524536,797.428589 
	C946.532043,804.563232 946.532593,804.553711 953.904236,804.530457 
	C956.900818,804.520996 959.911316,804.389648 962.890625,804.626343 
	C966.411987,804.906006 967.575928,803.524841 967.436707,800.036926 
	C967.200134,794.111755 967.371521,788.170288 967.371521,782.235657 
	C967.885803,781.920654 968.400085,781.605591 968.914368,781.290527 
	C970.766785,782.811279 972.982117,784.061646 974.371643,785.927124 
	C975.822571,787.875000 976.640930,790.358826 977.454285,792.705933 
	C981.554993,804.539124 981.522705,804.550659 994.162659,804.557434 
	C997.488220,804.559265 1000.813782,804.557739 1005.050049,804.557739 
	C999.891296,793.530762 999.062866,782.077271 988.635376,774.888367 
	C995.577209,771.337219 1000.819153,767.167053 1001.715576,759.583801 
	C1002.608826,752.027710 1000.829956,745.686340 993.062317,741.370178 
M1159.424805,787.317078 
	C1161.183960,791.990112 1162.817993,796.716797 1164.785034,801.300598 
	C1165.315063,802.535706 1166.822266,804.156067 1167.939087,804.202515 
	C1174.523071,804.476196 1181.124146,804.337158 1188.517334,804.337158 
	C1183.904175,793.391968 1182.889404,781.570801 1171.633667,774.865112 
	C1172.857422,774.271973 1173.435669,774.023743 1173.984009,773.721191 
	C1183.708618,768.354919 1187.070557,762.168091 1185.392212,752.745789 
	C1183.972534,744.775635 1178.294922,739.565552 1167.641357,738.878662 
	C1155.558960,738.099670 1143.387817,738.698853 1131.047607,738.698853 
	C1131.047607,760.310486 1131.047607,782.195984 1131.047607,803.942505 
	C1137.957520,803.942505 1144.515991,803.942505 1151.477905,803.942505 
	C1151.477905,796.257324 1151.477905,788.992432 1151.477905,781.727539 
	C1151.956055,781.373535 1152.434204,781.019470 1152.912231,780.665466 
	C1154.966919,782.650574 1157.021606,784.635681 1159.424805,787.317078 
M892.787720,753.505859 
	C892.787170,749.339783 893.020996,745.152039 892.637939,741.021423 
	C892.528442,739.840393 890.689331,737.960022 889.544067,737.883362 
	C884.568359,737.549988 879.548645,737.627991 874.563110,737.894836 
	C873.563965,737.948364 871.807373,739.482605 871.811890,740.326416 
	C871.888794,754.640991 871.266785,769.048279 872.711426,783.240356 
	C874.027466,796.169312 881.311035,802.860962 893.411560,804.976807 
	C917.617249,809.209351 933.309937,798.544250 932.430969,773.380676 
	C932.087952,763.560608 932.164001,753.711487 932.477051,743.889343 
	C932.623535,739.291260 931.646362,737.005554 926.514771,737.694458 
	C923.404175,738.112122 920.149658,738.108154 917.036133,737.704346 
	C912.094788,737.063599 911.205200,739.377136 911.300354,743.683594 
	C911.532166,754.177246 911.430786,764.679688 911.362854,775.177917 
	C911.306641,783.864319 908.243835,788.250305 902.375916,788.346313 
	C896.517212,788.442139 893.113586,784.028381 892.869141,775.499512 
	C892.668701,768.505798 892.802429,761.502502 892.787720,753.505859 
M691.897400,802.815308 
	C692.356689,803.273010 692.811890,804.124817 693.275940,804.129578 
	C701.148315,804.211548 709.021851,804.188293 717.771423,804.188293 
	C711.603027,793.890076 706.125671,784.382263 700.252075,775.125793 
	C698.029907,771.623779 697.593994,768.901672 700.092712,765.327759 
	C703.517517,760.429321 706.396851,755.145813 709.444458,749.988586 
	C711.649048,746.257812 713.746948,742.464111 716.259705,738.053894 
	C709.968323,738.053894 704.758667,738.532593 699.677551,737.928833 
	C693.749817,737.224609 690.788452,739.470703 688.556396,744.862183 
	C685.360596,752.581543 681.244995,759.920105 677.522156,767.421265 
	C677.084961,767.339844 676.647766,767.258423 676.210571,767.177002 
	C676.210571,757.549500 676.210571,747.921936 676.210571,738.471191 
	C669.031067,738.471191 662.632141,738.471191 656.314209,738.471191 
	C656.314209,760.614929 656.314209,782.336731 656.314209,804.006531 
	C663.074707,804.006531 669.476746,804.006531 676.484802,804.006531 
	C676.484802,794.366272 676.484802,785.036377 676.484802,775.706421 
	C676.894104,775.608093 677.303345,775.509705 677.712646,775.411377 
	C682.333862,784.315063 686.955078,793.218689 691.897400,802.815308 
M1222.499512,804.336121 
	C1229.093750,804.336121 1235.687866,804.336121 1242.080566,804.336121 
	C1242.080566,798.513672 1242.080566,793.443726 1242.080566,787.875244 
	C1234.090210,787.875244 1226.506592,787.875244 1219.060547,787.875244 
	C1219.060547,784.737000 1219.060547,782.128174 1219.060547,779.117981 
	C1226.023682,779.117981 1232.645874,779.117981 1239.495850,779.117981 
	C1239.495850,773.814148 1239.495850,768.918091 1239.495850,763.378723 
	C1232.510498,763.378723 1225.788818,763.378723 1219.010864,763.378723 
	C1219.010864,760.140686 1219.010864,757.555298 1219.010864,754.338867 
	C1226.499634,754.338867 1233.707520,754.338867 1240.959961,754.338867 
	C1240.959961,748.609436 1240.959961,743.519531 1240.959961,738.263550 
	C1226.746338,738.263550 1212.817505,738.263550 1198.586670,738.263550 
	C1198.586670,760.254639 1198.586670,782.009949 1198.586670,804.336914 
	C1206.249634,804.336914 1213.874634,804.336914 1222.499512,804.336121 
M492.800018,738.066589 
	C491.877991,739.232483 490.208405,740.367310 490.158600,741.569397 
	C489.890259,748.045105 490.020813,754.537476 490.019836,761.024109 
	C490.017670,775.303772 490.019135,789.583496 490.019135,804.008301 
	C496.948547,804.008301 503.500397,804.008301 510.638672,804.008301 
	C510.638672,796.968262 510.638672,790.244263 510.638672,783.139160 
	C514.875610,783.139160 518.573486,783.513550 522.157104,783.033691 
	C525.729980,782.555298 529.356873,781.612061 532.664917,780.187195 
	C542.483765,775.958130 546.955811,766.987427 545.302368,755.659424 
	C543.894348,746.013000 537.905823,739.854309 527.122925,738.943115 
	C516.053528,738.007751 504.879974,738.305237 492.800018,738.066589 
M642.908936,798.970215 
	C642.908936,794.504944 642.908936,790.039673 642.908936,785.464478 
	C638.226074,786.494873 634.092834,787.748413 629.870361,788.248596 
	C624.273254,788.911743 618.783020,788.185242 614.705322,783.676392 
	C609.433533,777.847412 609.027527,771.016968 611.768616,764.074097 
	C614.364990,757.497375 619.789124,754.247681 626.708313,754.500549 
	C631.924866,754.691162 637.102722,755.941467 642.763184,756.789917 
	C642.763184,751.829224 642.937805,746.703064 642.624329,741.606934 
	C642.557007,740.512451 640.877747,738.874329 639.681580,738.593933 
	C630.308594,736.397339 620.797852,735.769409 611.593140,739.048096 
	C598.280029,743.790344 590.711365,753.661499 588.917114,767.505798 
	C587.145203,781.177307 590.659302,793.270752 603.110535,800.777954 
	C615.068054,807.987671 628.011230,806.788147 640.830261,803.078369 
	C641.762817,802.808411 642.219360,800.893860 642.908936,798.970215 
M749.346802,739.005066 
	C741.598511,738.436340 733.850220,737.867615 725.129272,737.227539 
	C726.175049,740.135864 726.595703,741.708679 727.283508,743.154358 
	C732.716919,754.574768 738.352417,765.902466 743.572327,777.418884 
	C745.026123,780.626465 745.743652,784.337402 746.005676,787.876099 
	C746.404053,793.255432 746.109924,798.685974 746.109924,804.547241 
	C750.773804,804.547241 754.575134,804.586182 758.375305,804.539490 
	C767.633728,804.425598 766.524841,806.318604 766.808350,796.008362 
	C766.984192,789.614258 765.768372,783.155457 769.101624,776.962646 
	C775.091370,765.834473 780.637817,754.466309 786.278076,743.152954 
	C787.018860,741.667053 787.221558,739.912842 787.813660,737.777649 
	C784.982483,737.777649 783.000977,737.769592 781.019592,737.778931 
	C766.431641,737.847961 766.451416,737.855652 761.894592,751.540588 
	C760.843384,754.697571 759.606506,757.792847 758.455078,760.916504 
	C757.929688,760.860779 757.404297,760.804993 756.878906,760.749268 
	C754.488953,753.725281 752.098999,746.701355 749.346802,739.005066 
M1094.951904,739.287720 
	C1094.951904,760.868530 1094.951904,782.449341 1094.951904,803.975098 
	C1102.051025,803.975098 1108.622803,803.975098 1115.053467,803.975098 
	C1115.053467,781.863342 1115.053467,760.121094 1115.053467,738.480042 
	C1108.233276,738.480042 1101.780518,738.480042 1094.951904,739.287720 
M573.077332,738.040344 
	C567.450134,738.040344 561.822937,738.040344 555.984375,738.040344 
	C555.984375,760.295349 555.984375,782.149597 555.984375,804.043701 
	C562.833618,804.043701 569.389038,804.043701 576.262451,804.043701 
	C576.262451,782.831543 576.293274,761.911499 576.165833,740.992432 
	C576.159851,740.007935 574.745422,739.032043 573.077332,738.040344 
M370.195801,728.081665 
	C368.977386,728.589905 367.693329,728.981873 366.551727,729.626160 
	C361.034821,732.739807 358.114685,738.650757 359.025696,744.685852 
	C359.916260,750.585571 364.604675,755.542419 370.626099,756.950500 
	C376.373016,758.294373 382.980591,755.724670 386.296600,750.659912 
	C389.598419,745.616760 389.801239,740.240417 386.723938,735.127014 
	C383.218658,729.302551 377.811554,726.944458 370.195801,728.081665 
M295.791077,778.208801 
	C287.346497,790.773254 280.329407,803.792969 282.801453,820.154053 
	C284.913086,819.045532 287.286957,817.393982 287.261597,815.780151 
	C286.983978,798.117004 295.771332,783.781738 303.732361,769.062866 
	C301.247528,771.942871 298.762665,774.822815 295.791077,778.208801 
M307.080902,765.995422 
	C306.749786,766.086060 306.418640,766.176697 306.088135,766.272583 
	C306.373169,766.238098 306.658173,766.203613 307.080902,765.995422 
z"/>
<path fill="#082854" opacity="1.000000" stroke="none" 
	d="
M314.144257,818.998596 
	C314.147766,794.014648 314.138947,769.530212 314.157410,745.045837 
	C314.175201,721.450745 329.143158,699.031006 350.214935,690.987610 
	C375.342133,681.396179 401.378143,687.289978 418.208374,706.379456 
	C434.622131,724.996521 437.853302,750.703003 426.515686,772.469421 
	C415.561798,793.499146 392.194580,805.516235 367.059326,802.654175 
	C359.687012,801.814758 352.425995,799.997620 345.360321,798.674744 
	C343.699280,781.283142 349.133331,768.973633 360.891907,763.424316 
	C371.010101,758.649292 384.399109,757.895630 396.950073,771.528076 
	C409.631683,763.259094 416.210846,739.631836 400.439545,722.226196 
	C390.703735,711.481445 374.921234,707.459351 361.593353,712.238770 
	C347.553711,717.273438 337.938141,730.295044 337.824036,745.422913 
	C337.610443,773.736572 337.736420,802.052734 337.721375,830.367859 
	C337.720398,832.174561 337.721252,833.981323 337.721252,836.924622 
	C330.458862,836.924622 323.547028,837.045898 316.650818,836.772705 
	C315.777710,836.738220 314.343597,834.673767 314.271057,833.482788 
	C313.988098,828.835876 314.148407,824.161987 314.144257,818.998596 
z"/>
<path fill="#091835" opacity="1.000000" stroke="none" 
	d="
M1015.211304,796.870300 
	C1015.209290,777.106018 1015.209290,757.821472 1015.209290,738.280640 
	C1022.106445,738.280640 1028.538818,738.280640 1035.569092,738.280640 
	C1035.569092,746.232666 1035.569092,754.117493 1035.569092,762.324463 
	C1043.539307,762.324463 1050.915649,762.324463 1058.759277,762.324463 
	C1058.759277,754.327820 1058.759277,746.587219 1058.759277,738.427490 
	C1065.899536,738.427490 1072.583984,738.427490 1079.503906,738.427490 
	C1079.503906,760.326416 1079.503906,782.064880 1079.503906,804.085693 
	C1072.684692,804.085693 1066.101074,804.085693 1059.038086,804.085693 
	C1059.038086,796.029480 1059.038086,788.115051 1059.038086,779.897888 
	C1051.157227,779.897888 1043.749878,779.897888 1035.837402,779.897888 
	C1035.837402,787.984680 1035.837402,795.888794 1035.837402,804.048950 
	C1028.759155,804.048950 1022.184143,804.048950 1015.213379,804.048950 
	C1015.213379,801.625549 1015.213379,799.487793 1015.211304,796.870300 
z"/>
<path fill="#F08029" opacity="1.000000" stroke="none" 
	d="
M829.774414,805.838257 
	C814.087158,806.500793 802.265869,801.070923 795.747803,786.640503 
	C789.511902,772.834839 793.790039,753.719727 804.956665,744.539124 
	C817.004333,734.633972 835.732300,734.126221 848.704956,743.353027 
	C858.784119,750.521912 863.815430,767.239319 860.154785,781.398071 
	C856.497253,795.544861 846.469788,803.728394 829.774414,805.838257 
M817.777039,783.562134 
	C824.667236,791.278931 834.878662,790.017883 837.697693,780.364685 
	C839.289795,774.912659 838.932983,768.506836 837.939331,762.794067 
	C836.971313,757.228394 831.942505,754.242310 827.023193,754.396240 
	C821.920715,754.555847 817.717285,757.591125 816.074524,763.075317 
	C814.070435,769.766052 814.007385,776.496338 817.777039,783.562134 
z"/>
<path fill="#F08029" opacity="1.000000" stroke="none" 
	d="
M993.383667,741.553345 
	C1000.829956,745.686340 1002.608826,752.027710 1001.715576,759.583801 
	C1000.819153,767.167053 995.577209,771.337219 988.635376,774.888367 
	C999.062866,782.077271 999.891296,793.530762 1005.050049,804.557739 
	C1000.813782,804.557739 997.488220,804.559265 994.162659,804.557434 
	C981.522705,804.550659 981.554993,804.539124 977.454285,792.705933 
	C976.640930,790.358826 975.822571,787.875000 974.371643,785.927124 
	C972.982117,784.061646 970.766785,782.811279 968.914368,781.290527 
	C968.400085,781.605591 967.885803,781.920654 967.371521,782.235657 
	C967.371521,788.170288 967.200134,794.111755 967.436707,800.036926 
	C967.575928,803.524841 966.411987,804.906006 962.890625,804.626343 
	C959.911316,804.389648 956.900818,804.520996 953.904236,804.530457 
	C946.532593,804.553711 946.532043,804.563232 946.524536,797.428589 
	C946.505371,779.282104 946.417114,761.135010 946.585022,742.990295 
	C946.600342,741.330933 948.284546,738.235596 949.148315,738.251709 
	C963.831299,738.525391 978.793579,735.414001 993.383667,741.553345 
M979.619446,757.170288 
	C977.669250,752.163574 973.260925,751.835083 969.264526,752.897278 
	C968.013672,753.229736 967.792603,757.469360 967.125977,759.927551 
	C967.042114,760.237122 967.116394,760.589355 967.115784,760.921814 
	C967.104614,767.146851 970.565369,769.094727 976.142456,765.996216 
	C979.348389,764.215210 980.195007,761.364319 979.619446,757.170288 
z"/>
<path fill="#071532" opacity="1.000000" stroke="none" 
	d="
M1159.250488,786.968872 
	C1157.021606,784.635681 1154.966919,782.650574 1152.912231,780.665466 
	C1152.434204,781.019470 1151.956055,781.373535 1151.477905,781.727539 
	C1151.477905,788.992432 1151.477905,796.257324 1151.477905,803.942505 
	C1144.515991,803.942505 1137.957520,803.942505 1131.047607,803.942505 
	C1131.047607,782.195984 1131.047607,760.310486 1131.047607,738.698853 
	C1143.387817,738.698853 1155.558960,738.099670 1167.641357,738.878662 
	C1178.294922,739.565552 1183.972534,744.775635 1185.392212,752.745789 
	C1187.070557,762.168091 1183.708618,768.354919 1173.984009,773.721191 
	C1173.435669,774.023743 1172.857422,774.271973 1171.633667,774.865112 
	C1182.889404,781.570801 1183.904175,793.391968 1188.517334,804.337158 
	C1181.124146,804.337158 1174.523071,804.476196 1167.939087,804.202515 
	C1166.822266,804.156067 1165.315063,802.535706 1164.785034,801.300598 
	C1162.817993,796.716797 1161.183960,791.990112 1159.250488,786.968872 
M1159.356201,752.971924 
	C1156.791626,752.775452 1154.227173,752.578918 1151.428467,752.364502 
	C1151.428467,757.622681 1151.428467,762.168091 1151.428467,766.678162 
	C1158.004028,767.685181 1162.154907,766.297607 1163.529907,762.398743 
	C1164.896240,758.524292 1164.121094,755.197327 1159.356201,752.971924 
z"/>
<path fill="#F08029" opacity="1.000000" stroke="none" 
	d="
M892.787842,754.004639 
	C892.802429,761.502502 892.668701,768.505798 892.869141,775.499512 
	C893.113586,784.028381 896.517212,788.442139 902.375916,788.346313 
	C908.243835,788.250305 911.306641,783.864319 911.362854,775.177917 
	C911.430786,764.679688 911.532166,754.177246 911.300354,743.683594 
	C911.205200,739.377136 912.094788,737.063599 917.036133,737.704346 
	C920.149658,738.108154 923.404175,738.112122 926.514771,737.694458 
	C931.646362,737.005554 932.623535,739.291260 932.477051,743.889343 
	C932.164001,753.711487 932.087952,763.560608 932.430969,773.380676 
	C933.309937,798.544250 917.617249,809.209351 893.411560,804.976807 
	C881.311035,802.860962 874.027466,796.169312 872.711426,783.240356 
	C871.266785,769.048279 871.888794,754.640991 871.811890,740.326416 
	C871.807373,739.482605 873.563965,737.948364 874.563110,737.894836 
	C879.548645,737.627991 884.568359,737.549988 889.544067,737.883362 
	C890.689331,737.960022 892.528442,739.840393 892.637939,741.021423 
	C893.020996,745.152039 892.787170,749.339783 892.787842,754.004639 
z"/>
<path fill="#071532" opacity="1.000000" stroke="none" 
	d="
M691.736877,802.468872 
	C686.955078,793.218689 682.333862,784.315063 677.712646,775.411377 
	C677.303345,775.509705 676.894104,775.608093 676.484802,775.706421 
	C676.484802,785.036377 676.484802,794.366272 676.484802,804.006531 
	C669.476746,804.006531 663.074707,804.006531 656.314209,804.006531 
	C656.314209,782.336731 656.314209,760.614929 656.314209,738.471191 
	C662.632141,738.471191 669.031067,738.471191 676.210571,738.471191 
	C676.210571,747.921936 676.210571,757.549500 676.210571,767.177002 
	C676.647766,767.258423 677.084961,767.339844 677.522156,767.421265 
	C681.244995,759.920105 685.360596,752.581543 688.556396,744.862183 
	C690.788452,739.470703 693.749817,737.224609 699.677551,737.928833 
	C704.758667,738.532593 709.968323,738.053894 716.259705,738.053894 
	C713.746948,742.464111 711.649048,746.257812 709.444458,749.988586 
	C706.396851,755.145813 703.517517,760.429321 700.092712,765.327759 
	C697.593994,768.901672 698.029907,771.623779 700.252075,775.125793 
	C706.125671,784.382263 711.603027,793.890076 717.771423,804.188293 
	C709.021851,804.188293 701.148315,804.211548 693.275940,804.129578 
	C692.811890,804.124817 692.356689,803.273010 691.736877,802.468872 
z"/>
<path fill="#091835" opacity="1.000000" stroke="none" 
	d="
M1221.999512,804.336548 
	C1213.874634,804.336914 1206.249634,804.336914 1198.586670,804.336914 
	C1198.586670,782.009949 1198.586670,760.254639 1198.586670,738.263550 
	C1212.817505,738.263550 1226.746338,738.263550 1240.959961,738.263550 
	C1240.959961,743.519531 1240.959961,748.609436 1240.959961,754.338867 
	C1233.707520,754.338867 1226.499634,754.338867 1219.010864,754.338867 
	C1219.010864,757.555298 1219.010864,760.140686 1219.010864,763.378723 
	C1225.788818,763.378723 1232.510498,763.378723 1239.495850,763.378723 
	C1239.495850,768.918091 1239.495850,773.814148 1239.495850,779.117981 
	C1232.645874,779.117981 1226.023682,779.117981 1219.060547,779.117981 
	C1219.060547,782.128174 1219.060547,784.737000 1219.060547,787.875244 
	C1226.506592,787.875244 1234.090210,787.875244 1242.080566,787.875244 
	C1242.080566,793.443726 1242.080566,798.513672 1242.080566,804.336121 
	C1235.687866,804.336121 1229.093750,804.336121 1221.999512,804.336548 
z"/>
<path fill="#071532" opacity="1.000000" stroke="none" 
	d="
M493.276001,738.064880 
	C504.879974,738.305237 516.053528,738.007751 527.122925,738.943115 
	C537.905823,739.854309 543.894348,746.013000 545.302368,755.659424 
	C546.955811,766.987427 542.483765,775.958130 532.664917,780.187195 
	C529.356873,781.612061 525.729980,782.555298 522.157104,783.033691 
	C518.573486,783.513550 514.875610,783.139160 510.638672,783.139160 
	C510.638672,790.244263 510.638672,796.968262 510.638672,804.008301 
	C503.500397,804.008301 496.948547,804.008301 490.019135,804.008301 
	C490.019135,789.583496 490.017670,775.303772 490.019836,761.024109 
	C490.020813,754.537476 489.890259,748.045105 490.158600,741.569397 
	C490.208405,740.367310 491.877991,739.232483 493.276001,738.064880 
M522.892578,756.834534 
	C519.791382,752.173096 515.330200,752.372437 510.339111,753.218445 
	C510.339111,757.505859 510.327454,761.611328 510.347687,765.716675 
	C510.352448,766.685791 510.464508,767.654297 510.524536,768.582153 
	C520.496643,770.390076 524.639099,766.715698 522.892578,756.834534 
z"/>
<path fill="#091835" opacity="1.000000" stroke="none" 
	d="
M642.903076,799.357056 
	C642.219360,800.893860 641.762817,802.808411 640.830261,803.078369 
	C628.011230,806.788147 615.068054,807.987671 603.110535,800.777954 
	C590.659302,793.270752 587.145203,781.177307 588.917114,767.505798 
	C590.711365,753.661499 598.280029,743.790344 611.593140,739.048096 
	C620.797852,735.769409 630.308594,736.397339 639.681580,738.593933 
	C640.877747,738.874329 642.557007,740.512451 642.624329,741.606934 
	C642.937805,746.703064 642.763184,751.829224 642.763184,756.789917 
	C637.102722,755.941467 631.924866,754.691162 626.708313,754.500549 
	C619.789124,754.247681 614.364990,757.497375 611.768616,764.074097 
	C609.027527,771.016968 609.433533,777.847412 614.705322,783.676392 
	C618.783020,788.185242 624.273254,788.911743 629.870361,788.248596 
	C634.092834,787.748413 638.226074,786.494873 642.908936,785.464478 
	C642.908936,790.039673 642.908936,794.504944 642.903076,799.357056 
z"/>
<path fill="#F08029" opacity="1.000000" stroke="none" 
	d="
M749.527893,739.341248 
	C752.098999,746.701355 754.488953,753.725281 756.878906,760.749268 
	C757.404297,760.804993 757.929688,760.860779 758.455078,760.916504 
	C759.606506,757.792847 760.843384,754.697571 761.894592,751.540588 
	C766.451416,737.855652 766.431641,737.847961 781.019592,737.778931 
	C783.000977,737.769592 784.982483,737.777649 787.813660,737.777649 
	C787.221558,739.912842 787.018860,741.667053 786.278076,743.152954 
	C780.637817,754.466309 775.091370,765.834473 769.101624,776.962646 
	C765.768372,783.155457 766.984192,789.614258 766.808350,796.008362 
	C766.524841,806.318604 767.633728,804.425598 758.375305,804.539490 
	C754.575134,804.586182 750.773804,804.547241 746.109924,804.547241 
	C746.109924,798.685974 746.404053,793.255432 746.005676,787.876099 
	C745.743652,784.337402 745.026123,780.626465 743.572327,777.418884 
	C738.352417,765.902466 732.716919,754.574768 727.283508,743.154358 
	C726.595703,741.708679 726.175049,740.135864 725.129272,737.227539 
	C733.850220,737.867615 741.598511,738.436340 749.527893,739.341248 
z"/>
<path fill="#F08029" opacity="1.000000" stroke="none" 
	d="
M417.952515,799.143738 
	C424.744324,791.830811 431.992889,784.885071 438.229492,777.125854 
	C449.933380,762.564636 460.633423,747.227234 463.287140,728.086853 
	C464.021088,722.792786 462.909424,717.222290 462.420959,711.798767 
	C462.336914,710.865540 461.229126,709.382385 460.421600,709.256042 
	C452.611176,708.033752 449.645813,702.912170 449.368530,694.851379 
	C437.840057,694.851379 426.624359,694.851379 415.798706,694.851379 
	C422.879242,690.654602 439.228699,688.901428 447.813141,691.284241 
	C449.356995,691.712830 451.650482,691.292603 452.966949,690.366943 
	C458.565979,686.430176 462.859985,686.316040 467.282257,690.487549 
	C471.675049,694.631287 471.916412,698.921021 468.420258,704.869019 
	C467.692596,706.106934 467.166168,708.122620 467.660522,709.320374 
	C475.115082,727.383667 469.848145,743.808655 461.557220,759.953369 
	C453.548035,775.549438 442.427551,788.707947 429.403778,800.958984 
	C428.337860,801.406616 427.851013,801.757263 427.364197,802.107910 
	C427.245544,802.315674 427.126892,802.523438 426.269958,802.784302 
	C422.408997,802.829712 419.078033,803.249451 417.952515,799.143738 
z"/>
<path fill="#082854" opacity="1.000000" stroke="none" 
	d="
M417.680756,799.317993 
	C419.078033,803.249451 422.408997,802.829712 425.949768,802.946350 
	C419.490295,809.014282 413.062836,815.616760 405.645721,820.804260 
	C387.712830,833.346375 368.771149,844.029053 346.906036,848.364319 
	C329.436218,851.828125 312.476746,852.407776 297.297516,840.764832 
	C296.491730,840.146729 294.568420,840.503113 293.375092,840.956970 
	C288.467590,842.824097 283.840515,841.812256 280.830048,837.968506 
	C278.270599,834.700867 278.147705,829.206238 280.645416,825.786804 
	C283.592255,821.752380 287.713318,820.981750 292.238525,822.112549 
	C296.560364,823.192566 299.598236,827.411377 299.041748,832.432495 
	C298.673950,835.750977 300.208252,836.917297 302.630432,838.000488 
	C313.518646,842.869507 324.943298,843.537109 336.417542,841.403259 
	C367.589386,835.606140 393.750793,819.918335 417.680756,799.317993 
z"/>
<path fill="#071532" opacity="1.000000" stroke="none" 
	d="
M1095.139771,738.883911 
	C1101.780518,738.480042 1108.233276,738.480042 1115.053467,738.480042 
	C1115.053467,760.121094 1115.053467,781.863342 1115.053467,803.975098 
	C1108.622803,803.975098 1102.051025,803.975098 1094.951904,803.975098 
	C1094.951904,782.449341 1094.951904,760.868530 1095.139771,738.883911 
z"/>
<path fill="#071532" opacity="1.000000" stroke="none" 
	d="
M573.532104,738.046265 
	C574.745422,739.032043 576.159851,740.007935 576.165833,740.992432 
	C576.293274,761.911499 576.262451,782.831543 576.262451,804.043701 
	C569.389038,804.043701 562.833618,804.043701 555.984375,804.043701 
	C555.984375,782.149597 555.984375,760.295349 555.984375,738.040344 
	C561.822937,738.040344 567.450134,738.040344 573.532104,738.046265 
z"/>
<path fill="#082854" opacity="1.000000" stroke="none" 
	d="
M370.611389,728.003601 
	C377.811554,726.944458 383.218658,729.302551 386.723938,735.127014 
	C389.801239,740.240417 389.598419,745.616760 386.296600,750.659912 
	C382.980591,755.724670 376.373016,758.294373 370.626099,756.950500 
	C364.604675,755.542419 359.916260,750.585571 359.025696,744.685852 
	C358.114685,738.650757 361.034821,732.739807 366.551727,729.626160 
	C367.693329,728.981873 368.977386,728.589905 370.611389,728.003601 
z"/>
<path fill="#F08029" opacity="1.000000" stroke="none" 
	d="
M296.034424,777.955811 
	C298.762665,774.822815 301.247528,771.942871 303.732361,769.062866 
	C295.771332,783.781738 286.983978,798.117004 287.261597,815.780151 
	C287.286957,817.393982 284.913086,819.045532 282.801453,820.154053 
	C280.329407,803.792969 287.346497,790.773254 296.034424,777.955811 
z"/>
<path fill="#F08029" opacity="1.000000" stroke="none" 
	d="
M307.012054,766.082275 
	C306.658173,766.203613 306.373169,766.238098 306.087830,766.270020 
	C306.418640,766.176697 306.749786,766.086060 307.012054,766.082275 
z"/>
<path fill="#082854" opacity="1.000000" stroke="none" 
	d="
M427.599060,802.082764 
	C427.851013,801.757263 428.337860,801.406616 429.108185,801.081299 
	C428.872437,801.423584 428.353180,801.740601 427.599060,802.082764 
z"/>
<path fill="#FFFFFF" opacity="1.000000" stroke="none" 
	d="
M817.581177,783.237671 
	C814.007385,776.496338 814.070435,769.766052 816.074524,763.075317 
	C817.717285,757.591125 821.920715,754.555847 827.023193,754.396240 
	C831.942505,754.242310 836.971313,757.228394 837.939331,762.794067 
	C838.932983,768.506836 839.289795,774.912659 837.697693,780.364685 
	C834.878662,790.017883 824.667236,791.278931 817.581177,783.237671 
z"/>
<path fill="#FFFFFF" opacity="1.000000" stroke="none" 
	d="
M979.692261,757.556885 
	C980.195007,761.364319 979.348389,764.215210 976.142456,765.996216 
	C970.565369,769.094727 967.104614,767.146851 967.115784,760.921814 
	C967.116394,760.589355 967.042114,760.237122 967.125977,759.927551 
	C967.792603,757.469360 968.013672,753.229736 969.264526,752.897278 
	C973.260925,751.835083 977.669250,752.163574 979.692261,757.556885 
z"/>
<path fill="#FFFFFF" opacity="1.000000" stroke="none" 
	d="
M1159.734619,753.084167 
	C1164.121094,755.197327 1164.896240,758.524292 1163.529907,762.398743 
	C1162.154907,766.297607 1158.004028,767.685181 1151.428467,766.678162 
	C1151.428467,762.168091 1151.428467,757.622681 1151.428467,752.364502 
	C1154.227173,752.578918 1156.791626,752.775452 1159.734619,753.084167 
z"/>
<path fill="#FFFFFF" opacity="1.000000" stroke="none" 
	d="
M523.019409,757.199707 
	C524.639099,766.715698 520.496643,770.390076 510.524536,768.582153 
	C510.464508,767.654297 510.352448,766.685791 510.347687,765.716675 
	C510.327454,761.611328 510.339111,757.505859 510.339111,753.218445 
	C515.330200,752.372437 519.791382,752.173096 523.019409,757.199707 
z"/>
</svg>